# xmcd
#
# Track frame offsets:
#	150
#	12848
#	32072
#	49509
#	70259
#	88253
#	105588
#	131405
#	145016
#	167402
#	187874
#
# Disc length: 2794 seconds
#
# Revision: 0
# Processed by: cddbd v1.5.1PL0 Copyright (c) Steve Scherf et al.
# Submitted via: dBpowerAMP V4.0
#
DISCID=840ae80b
DTITLE=Mojo Blues Band - Blues Roll On
DYEAR=1994
DGENRE=Blues
TTITLE0=01.Let it Rain
TTITLE1=02.Chicago is Callin'
TTITLE2=03.Masada
TTITLE3=04.I'm Not That Easy
TTITLE4=05.It's Half Past Midnight
TTITLE5=06.Frankie And Johnny
TTITLE6=07.Promised Land
TTITLE7=08.I Feel Like Dancing
TTITLE8=09.The Reedman's Boogie
TTITLE9=10.Nothing In This World
TTITLE10=11.Inflation Blues
EXTD=
EXTT0=
EXTT1=
EXTT2=
EXTT3=
EXTT4=
EXTT5=
EXTT6=
EXTT7=
EXTT8=
EXTT9=
EXTT10=
PLAYORDER=
